<?xml version="1.0" standalone="no"?>
<!DOCTYPE svg PUBLIC "-//W3C//DTD SVG 20010904//EN"
 "http://www.w3.org/TR/2001/REC-SVG-20010904/DTD/svg10.dtd">
<svg version="1.0" xmlns="http://www.w3.org/2000/svg"
 width="225.000000pt" height="225.000000pt" viewBox="0 0 225.000000 225.000000"
 preserveAspectRatio="xMidYMid meet">
<metadata>
Created by potrace 1.16, written by Peter Selinger 2001-2019
</metadata>
<g transform="translate(0.000000,225.000000) scale(0.100000,-0.100000)"
fill="#000000" stroke="none">
<path d="M1883 2220 c-67 -34 -144 -110 -206 -203 l-38 -57 -302 0 c-257 0
-306 -2 -325 -15 -12 -9 -233 -241 -492 -515 -395 -421 -470 -504 -470 -529 0
-25 60 -84 456 -457 251 -236 463 -433 471 -437 8 -5 25 -6 37 -3 21 5 940
971 971 1020 11 17 10 71 -5 306 l-18 285 63 65 c244 251 230 537 -27 566 -46
5 -61 2 -115 -26z m181 -94 c54 -35 56 -127 4 -230 -23 -47 -97 -146 -108
-146 -4 0 -10 38 -12 85 -3 47 -11 92 -18 100 -9 11 -34 15 -91 15 -48 0 -79
4 -79 10 0 14 71 108 106 142 60 56 136 65 198 24z m-510 -333 c-9 -21 -25
-61 -36 -89 -20 -51 -20 -52 -69 -56 -168 -16 -216 -247 -71 -339 36 -23 58
-29 99 -29 175 0 257 192 136 321 l-24 26 44 99 43 99 75 3 74 3 23 -377 24
-377 -49 -51 c-28 -28 -224 -237 -437 -464 l-388 -412 -166 157 c-92 87 -272
257 -400 377 l-233 219 23 28 c13 15 207 224 433 463 l410 435 253 1 252 0
-16 -37z m-94 -237 c0 -2 -7 -23 -15 -46 -14 -39 -14 -46 0 -67 28 -42 67 -28
88 32 16 47 28 50 41 12 8 -21 6 -35 -8 -61 -32 -61 -97 -73 -145 -28 -44 40
-45 95 -5 136 24 23 44 33 44 22z"/>
<path d="M917 1513 c-4 -3 -7 -10 -7 -14 0 -14 634 -604 649 -604 9 0 16 5 16
12 0 12 -634 613 -646 613 -3 0 -9 -3 -12 -7z"/>
<path d="M1065 1066 c-16 -23 -18 -24 -50 -10 -56 23 -100 18 -139 -17 -50
-43 -55 -81 -20 -160 32 -77 36 -127 11 -143 -26 -16 -65 10 -105 69 -19 28
-37 51 -40 52 -4 2 -20 -8 -37 -21 l-29 -24 32 -52 33 -53 -21 -22 c-26 -27
-25 -31 5 -51 25 -16 27 -16 50 6 16 15 30 20 42 15 75 -31 137 -22 177 26 36
42 34 97 -4 187 -16 39 -27 77 -24 86 16 41 70 22 111 -38 15 -23 29 -43 30
-45 4 -6 73 32 73 40 0 3 -14 25 -31 49 l-31 42 21 22 21 22 -23 22 c-29 28
-33 27 -52 -2z"/>
</g>
</svg>
