<?xml version="1.0" standalone="no"?>
<!DOCTYPE svg PUBLIC "-//W3C//DTD SVG 20010904//EN"
 "http://www.w3.org/TR/2001/REC-SVG-20010904/DTD/svg10.dtd">
<svg version="1.0" xmlns="http://www.w3.org/2000/svg"
 width="225.000000pt" height="225.000000pt" viewBox="0 0 225.000000 225.000000"
 preserveAspectRatio="xMidYMid meet">
<metadata>
Created by potrace 1.16, written by Peter Selinger 2001-2019
</metadata>
<g transform="translate(0.000000,225.000000) scale(0.100000,-0.100000)"
fill="#000000" stroke="none">
<path d="M986 2045 c-188 -52 -343 -207 -390 -391 -9 -34 -16 -73 -16 -86 0
-14 -11 -35 -25 -48 -24 -23 -25 -28 -25 -152 0 -124 1 -130 25 -153 18 -19
35 -25 65 -25 30 0 47 6 65 25 24 23 25 30 25 149 0 119 -1 126 -26 155 -24
29 -25 33 -14 86 36 175 170 314 347 360 247 64 510 -103 563 -360 11 -53 10
-57 -14 -86 -25 -29 -26 -36 -26 -155 l0 -124 -31 -19 c-18 -11 -62 -27 -98
-36 -60 -15 -69 -15 -96 -1 -39 20 -104 20 -133 0 -24 -17 -30 -62 -10 -82 18
-18 133 -16 148 3 7 8 25 15 39 15 37 0 127 27 176 53 28 15 54 20 87 18 39
-2 51 1 73 23 24 24 25 29 25 152 0 118 -2 129 -22 152 -15 16 -27 47 -35 94
-34 203 -197 378 -403 433 -68 18 -208 18 -274 0z"/>
<path d="M1015 1907 c-143 -48 -242 -146 -280 -279 -16 -56 -16 -58 7 -88 20
-28 23 -45 26 -151 2 -68 -1 -133 -7 -150 -9 -26 -6 -39 21 -92 91 -182 248
-294 380 -272 69 12 138 53 208 124 59 60 63 66 42 69 -13 2 -41 -6 -63 -17
-53 -28 -151 -29 -195 -2 -63 38 -70 128 -13 175 26 22 40 26 97 26 36 0 79
-5 96 -11 25 -9 42 -7 86 8 l55 18 5 122 c4 108 8 125 29 154 l24 32 -18 56
c-36 116 -111 201 -224 254 -54 26 -80 32 -151 34 -52 2 -101 -2 -125 -10z"/>
<path d="M725 873 c-148 -9 -238 -44 -305 -120 -67 -76 -130 -217 -130 -291 0
-50 33 -113 74 -140 127 -86 392 -132 761 -132 369 0 634 46 761 132 41 27 74
90 74 140 0 74 -63 215 -130 291 -70 79 -143 106 -330 121 l-65 5 -32 -52
c-50 -82 -194 -242 -203 -226 -4 8 -13 39 -20 70 -11 48 -10 60 4 87 29 57 24
62 -59 62 -83 0 -88 -5 -59 -62 14 -27 15 -39 4 -87 -7 -31 -16 -62 -20 -70
-9 -16 -153 144 -203 226 -23 37 -38 52 -52 51 -11 -1 -42 -3 -70 -5z"/>
</g>
</svg>
