<?xml version="1.0" standalone="no"?>
<!DOCTYPE svg PUBLIC "-//W3C//DTD SVG 20010904//EN"
 "http://www.w3.org/TR/2001/REC-SVG-20010904/DTD/svg10.dtd">
<svg version="1.0" xmlns="http://www.w3.org/2000/svg"
 width="225.000000pt" height="225.000000pt" viewBox="0 0 225.000000 225.000000"
 preserveAspectRatio="xMidYMid meet">
<metadata>
Created by potrace 1.16, written by Peter Selinger 2001-2019
</metadata>
<g transform="translate(0.000000,225.000000) scale(0.100000,-0.100000)"
fill="#000000" stroke="none">
<path d="M130 2151 c-14 -27 -14 -1255 0 -1282 10 -17 23 -19 154 -19 156 0
159 1 171 58 l7 33 45 -77 c61 -104 97 -154 230 -319 248 -308 276 -337 347
-356 44 -12 100 -5 118 15 8 9 26 12 50 8 48 -6 94 27 129 92 22 42 27 46 61
46 21 0 38 3 38 8 0 4 13 14 29 23 15 9 37 36 49 60 13 28 32 49 51 57 68 30
111 109 111 204 0 42 5 54 34 84 l34 35 7 -41 c11 -67 19 -70 170 -70 108 0
137 3 149 16 14 14 16 86 16 648 0 502 -3 636 -13 650 -11 15 -25 17 -97 14
-86 -4 -246 -33 -265 -48 -5 -4 -28 -13 -50 -20 -49 -16 -126 -58 -142 -78 -7
-9 -13 -28 -13 -44 0 -15 -3 -28 -7 -28 -8 0 -168 101 -188 118 -6 5 -24 17
-40 28 -17 10 -32 22 -35 25 -3 4 -34 16 -69 28 -62 20 -65 20 -113 3 -31 -10
-69 -35 -98 -64 l-49 -48 -165 0 -166 0 0 52 c0 47 -3 54 -41 89 -24 22 -63
45 -93 54 -28 9 -60 21 -71 26 -22 10 -204 39 -247 39 -17 0 -31 -7 -38 -19z
m200 -136 c73 -14 174 -48 196 -66 18 -15 -21 -311 -97 -724 -22 -121 -42
-228 -45 -238 -5 -16 -16 -17 -92 -15 l-87 3 -3 534 -2 533 27 -6 c16 -3 62
-13 103 -21z m1720 -635 l0 -531 -92 3 -92 3 -32 155 c-44 215 -78 365 -131
575 -25 99 -48 190 -50 202 -4 19 3 26 49 47 74 34 232 72 311 75 l37 1 0
-530z m-823 498 c21 -12 61 -38 88 -58 28 -21 64 -45 80 -54 17 -9 50 -30 75
-46 25 -16 59 -36 77 -45 59 -30 54 -16 159 -479 58 -259 58 -241 1 -299 -25
-26 -28 -27 -34 -10 -20 55 -116 192 -299 428 -77 100 -150 198 -162 217 -28
45 -43 51 -73 30 -13 -9 -46 -28 -74 -42 -37 -20 -56 -38 -76 -76 -16 -30 -40
-57 -61 -68 -31 -18 -39 -18 -68 -6 l-33 13 6 61 c8 80 50 183 119 287 107
160 182 200 275 147z m-393 -150 c-139 -274 -112 -498 58 -498 58 0 105 36
154 118 14 23 32 42 39 42 7 0 25 10 40 22 24 18 29 19 39 7 6 -8 45 -59 86
-114 41 -55 113 -150 161 -211 142 -182 229 -327 229 -382 0 -30 -25 -78 -45
-86 -20 -7 -55 42 -182 251 -77 127 -103 162 -119 163 -42 0 -56 -87 -20 -130
7 -8 41 -62 76 -120 35 -58 83 -135 107 -172 23 -37 43 -71 43 -76 0 -21 -43
-62 -65 -62 -18 0 -34 16 -68 68 -65 99 -95 148 -124 200 -14 26 -37 59 -51
74 -24 26 -27 27 -44 11 -45 -40 -18 -107 139 -347 l46 -69 -18 -34 c-25 -46
-52 -52 -81 -17 -25 30 -113 169 -175 277 -38 65 -64 81 -86 51 -31 -43 -1
-116 134 -322 19 -29 33 -56 30 -59 -12 -12 -78 21 -113 55 -75 76 -444 547
-444 567 0 3 -20 37 -45 76 l-46 71 15 76 c23 116 52 290 76 452 11 80 23 151
25 158 3 9 38 12 130 12 l125 0 -26 -52z"/>
</g>
</svg>
